<svg viewBox="0 0 580 120" xmlns="http://www.w3.org/2000/svg">
  <!-- C -->
  <path d="M 60,30 C 80,30 90,40 90,55 L 73,55 C 73,45 68,44 60,44 C 45,44 40,52 40,65 C 40,78 45,86 60,86 C 68,86 73,85 73,75 L 90,75 C 90,90 80,100 60,100 C 30,100 22,85 22,65 C 22,45 30,30 60,30 Z" fill="#003650"/>
  <!-- O -->
  <path d="M 130,30 C 160,30 170,45 170,65 C 170,85 160,100 130,100 C 100,100 90,85 90,65 C 90,45 100,30 130,30 Z M 130,44 C 115,44 108,52 108,65 C 108,78 115,86 130,86 C 145,86 152,78 152,65 C 152,52 145,44 130,44 Z" fill="#003650"/>
  <!-- L -->
  <path d="M 185,32 L 203,32 L 203,86 L 230,86 L 230,100 L 185,100 Z" fill="#003650"/>
  <!-- L -->
  <path d="M 240,32 L 258,32 L 258,86 L 285,86 L 285,100 L 240,100 Z" fill="#003650"/>
  
  <!-- A -->
  <path d="M 315,32 L 333,32 L 360,100 L 340,100 L 332,80 L 305,80 L 297,100 L 278,100 Z" fill="#003650"/>
  <polygon points="310,68 327,68 318.5,88" fill="#c3bac6" />
  
  <!-- B -->
  <path d="M 370,32 L 400,32 C 418,32 425,38 425,48 C 425,56 420,61 410,63 C 425,66 430,73 430,84 C 430,96 420,100 395,100 L 370,100 Z M 388,46 L 388,60 L 398,60 C 406,60 406,46 398,46 Z M 388,74 L 388,86 L 400,86 C 408,86 408,74 400,74 Z" fill="#003650"/>
  <!-- I -->
  <path d="M 440,32 L 458,32 L 458,100 L 440,100 Z" fill="#003650"/>
  <!-- L -->
  <path d="M 470,32 L 488,32 L 488,86 L 515,86 L 515,100 L 470,100 Z" fill="#003650"/>
  <!-- L -->
  <path d="M 525,32 L 543,32 L 543,86 L 570,86 L 570,100 L 525,100 Z" fill="#003650"/>
</svg>
